<svg xmlns="http://www.w3.org/2000/svg" version="1.1" xmlns:xlink="http://www.w3.org/1999/xlink" xmlns:svgjs="http://svgjs.dev/svgjs" width="1000" height="1000" viewBox="0 0 1000 1000"><rect width="1000" height="1000" fill="#ffffff"></rect><g transform="matrix(0.7,0,0,0.7,150.06009354557074,92.58016194331981)"><svg viewBox="0 0 212 247" data-background-color="#ffffff" preserveAspectRatio="xMidYMid meet" height="1165" width="1000" xmlns="http://www.w3.org/2000/svg" xmlns:xlink="http://www.w3.org/1999/xlink"><g id="tight-bounds" transform="matrix(1,0,0,1,-0.018199759515709957,-0.09999999999999432)"><svg viewBox="0 0 212.03639951903145 247.2" height="247.2" width="212.03639951903145"><g><svg></svg></g><g><svg viewBox="0 0 212.03639951903145 247.2" height="247.2" width="212.03639951903145"><g transform="matrix(1,0,0,1,0,47.215199999999996)"><svg viewBox="0 0 212.03639951903145 152.7696" height="152.7696" width="212.03639951903145"><g><svg viewBox="0 0 244.43135999999998 176.1097678481584" height="152.7696" width="212.03639951903145"><g transform="matrix(1,0,0,1,0,130.6934109317164)"><svg viewBox="0 0 244.43135999999998 45.41635691644204" height="45.41635691644204" width="244.43135999999998"><g id="textblocktransform"><svg viewBox="0 0 244.43135999999998 45.41635691644204" height="45.41635691644204" width="244.43135999999998" id="textblock"><g><svg viewBox="0 0 244.43135999999998 45.41635691644204" height="45.41635691644204" width="244.43135999999998"><g transform="matrix(1,0,0,1,0,0)"><svg width="244.43135999999998" viewBox="0 -36.040000915527344 271.70001220703125 50.4900016784668" height="45.41635691644204" data-palette-color="#222222"><path d="M35.94 0L35.94 0 32.23 0.34Q29.54-16.5 26.42-28.52L26.42-28.52Q24.8-24.71 22.88-17.8 20.95-10.89 20.21-8.84L20.21-8.84Q20.12-8.84 19.9-8.81 19.68-8.79 19.53-8.79L19.53-8.79Q18.85-8.79 17.29-8.94 15.72-9.08 15.28-9.08L15.28-9.08Q15.23-10.5 12.79-18.53 10.35-26.56 9.86-28.81L9.86-28.81Q8.98-20.9 3.03 0L3.03 0 0-0.29Q0.68-5.62 3.37-17.04 6.05-28.47 6.54-34.72L6.54-34.72Q7.42-34.81 7.96-34.81L7.96-34.81Q8.45-34.81 11.57-34.42L11.57-34.42Q12.26-34.33 13.55-30 14.84-25.68 16.16-20.51 17.48-15.33 17.82-14.4L17.82-14.4Q19.19-17.77 21.12-25.34 23.05-32.91 23.83-34.96L23.83-34.96Q24.61-34.91 28.76-34.52L28.76-34.52Q30.03-29.59 31.23-23.88 32.42-18.16 33.81-10.89 35.21-3.61 35.94 0ZM39.69-21.09L39.69-21.09 38.72-23.58Q39.99-24.85 41.94-25.61 43.89-26.37 45.8-26.37L45.8-26.37Q54.05-26.37 54.05-12.11L54.05-12.11Q54.05-10.16 53.83-6.35 53.61-2.54 53.61-0.63L53.61-0.63Q53.22 0.88 52.1 0.88L52.1 0.88Q51.22 0.88 50.49 0 49.75-0.88 49.75-1.95L49.75-1.95Q49.75-2.29 49.8-2.44L49.8-2.44Q46.77 0.49 43.36 0.49L43.36 0.49Q40.77 0.49 38.84-1.39 36.91-3.27 36.91-5.96L36.91-5.96Q36.91-10.5 40.45-14.16 43.99-17.82 48.48-17.82L48.48-17.82Q48.68-17.82 48.87-17.8 49.07-17.77 49.34-17.72 49.61-17.68 49.75-17.68L49.75-17.68Q49.36-23.39 45.21-23.39L45.21-23.39Q42.77-23.39 39.69-21.09ZM49.9-5.81L49.9-5.81Q50-9.23 50-10.99L50-10.99Q50-12.45 49.9-15.09L49.9-15.09 49.51-15.09Q46.04-15.04 43.19-12.5 40.33-9.96 40.33-6.35L40.33-6.35Q40.33-4.79 41.28-3.86 42.23-2.93 43.6-2.93L43.6-2.93Q45.75-2.93 49.9-5.81ZM61.52 14.45L61.52 14.45 58.49 12.74Q60.49 9.28 65.57-0.44L65.57-0.44Q61.62-3.96 59.52-11.08 57.42-18.21 56.98-25.34L56.98-25.34 59.81-25.2Q60.05-24.02 60.86-19.85 61.66-15.67 62.15-13.67 62.64-11.67 63.89-8.67 65.13-5.66 66.74-3.61L66.74-3.61Q73.53-16.65 73.53-25L73.53-25 73.53-25.54Q76.07-25.15 77.34-24.61L77.34-24.61Q76.56-19.48 74.9-14.16 73.24-8.84 70.75-3.44 68.26 1.95 66.33 5.62 64.4 9.28 61.52 14.45ZM93.84-24.51L93.84-24.51 96.18-24.07 96.18-23.58Q96.18-20.26 96.6-12.35 97.01-4.44 97.36-0.15L97.36-0.15Q96.38 0.24 95.5 0.24L95.5 0.24Q94.72 0.24 93.74 0L93.74 0 93.35-1.27Q90.23 0.49 87.39 0.49L87.39 0.49Q85.3 0.49 83.76-0.49 82.22-1.46 81.39-2.91 80.56-4.35 80.07-6.47 79.58-8.59 79.46-10.33 79.34-12.06 79.34-14.21L79.34-14.21Q79.34-20.46 80.12-25.68L80.12-25.68 82.32-25.2Q82.66-23.58 82.66-21.68L82.66-21.68Q82.66-20.61 82.54-17.97 82.41-15.33 82.41-13.96L82.41-13.96Q82.41-11.57 82.63-9.84 82.85-8.11 83.46-6.47 84.07-4.83 85.34-3.96 86.61-3.08 88.52-3.08L88.52-3.08Q90.67-3.08 93.16-4.05L93.16-4.05Q93.25-5.86 93.35-13.31 93.45-20.75 93.84-24.51ZM117.42-18.6L117.42-18.6 115.27-18.75Q114.25-21.48 111.81-21.48L111.81-21.48Q110.73-21.48 109.54-21 108.34-20.51 107.56-20 106.78-19.48 105.51-18.51L105.51-18.51Q105.51-17.82 105.48-14.06 105.46-10.3 105.53-5.71 105.61-1.12 105.7-0.78L105.7-0.78Q105.26 0.68 103.99 0.68L103.99 0.68Q103.12 0.68 102.31-0.02 101.5-0.73 101.31-1.76L101.31-1.76Q102.24-17.43 102.97-25.44L102.97-25.44 105.17-24.95 105.31-21.68Q108.73-24.51 111.17-24.51L111.17-24.51Q113.86-24.51 115.69-23.29 117.52-22.07 117.52-19.73L117.52-19.73Q117.52-18.99 117.42-18.6ZM120.54-25.1L120.54-25.1 122.79-24.61Q123.18-20.61 123.47-12.04 123.77-3.47 123.86-1.42L123.86-1.42Q123.43 0.1 122.16 0.1L122.16 0.1Q121.28 0.1 120.47-0.61 119.67-1.32 119.47-2.34L119.47-2.34Q119.57-4.35 119.86-12.77 120.15-21.19 120.54-25.1ZM121.23-33.84L121.23-33.84Q122.55-33.84 123.43-32.69 124.3-31.54 124.3-30.08L124.3-30.08Q124.3-29 123.79-28.34 123.28-27.69 122.4-27.69L122.4-27.69Q121.03-27.69 120.25-28.81 119.47-29.93 119.47-31.45L119.47-31.45Q119.47-32.52 119.93-33.18 120.4-33.84 121.23-33.84ZM162.73 0.34L162.73 0.34 158.43 0.34Q156.82-1.17 155.01-3.13 153.21-5.08 152.06-6.45 150.91-7.81 148.88-10.33 146.86-12.84 146.03-13.87L146.03-13.87 146.66-0.68Q146.22 0.78 144.95 0.78L144.95 0.78Q144.07 0.78 143.27 0.07 142.46-0.63 142.27-1.66L142.27-1.66Q142.41-5.57 142.51-17.87 142.61-30.18 142.95-36.04L142.95-36.04 145.15-35.55Q145.3-33.11 145.49-27.08 145.69-21.04 145.78-19.04L145.78-19.04Q146.61-20.07 148.88-22.83 151.15-25.59 152.01-26.59 152.86-27.59 154.5-29.49 156.13-31.4 157.5-32.81 158.87-34.23 160.43-35.69L160.43-35.69 161.9-33.3Q160.14-30.37 148.27-16.7L148.27-16.7Q149.98-14.89 155.33-8.3 160.68-1.71 162.73 0.34ZM165.75-25.1L165.75-25.1 168-24.61Q168.39-20.61 168.68-12.04 168.97-3.47 169.07-1.42L169.07-1.42Q168.63 0.1 167.36 0.1L167.36 0.1Q166.48 0.1 165.68-0.61 164.87-1.32 164.68-2.34L164.68-2.34Q164.77-4.35 165.07-12.77 165.36-21.19 165.75-25.1ZM166.44-33.84L166.44-33.84Q167.75-33.84 168.63-32.69 169.51-31.54 169.51-30.08L169.51-30.08Q169.51-29 169-28.34 168.49-27.69 167.61-27.69L167.61-27.69Q166.24-27.69 165.46-28.81 164.68-29.93 164.68-31.45L164.68-31.45Q164.68-32.52 165.14-33.18 165.61-33.84 166.44-33.84ZM186.84-23.63L186.84-23.63 187.38-21.44Q186.06-21.34 183.33-20.92 180.59-20.51 179.23-20.41L179.23-20.41Q179.47-18.7 179.52-15.92 179.57-13.13 179.64-11.11 179.71-9.08 180.08-7.06 180.45-5.03 181.59-3.96 182.74-2.88 184.69-2.88L184.69-2.88Q186.16-2.88 188.36-3.56L188.36-3.56Q189.28-1.76 189.72-0.93L189.72-0.93Q185.87 0.44 181.91 0.44L181.91 0.44Q180.45 0.44 179.37-0.44 178.3-1.32 177.71-2.64 177.13-3.96 176.76-5.98 176.39-8.01 176.3-9.81 176.2-11.62 176.2-13.96L176.2-13.96Q176.2-15.23 176.22-17.48 176.25-19.73 176.25-20.56L176.25-20.56Q175.76-20.51 173.95-20.48 172.15-20.46 171.85-20.46L171.85-20.46Q171.51-23.73 171.51-23.83L171.51-23.83Q171.85-23.73 172.63-23.73L172.63-23.73Q173.07-23.73 174.05-23.8 175.03-23.88 175.51-23.88L175.51-23.88Q175.71-23.88 176.03-23.85 176.34-23.83 176.44-23.83L176.44-23.83Q176.64-29.2 176.88-32.57L176.88-32.57 179.08-32.03Q179.13-30.86 179.15-29.52 179.18-28.17 179.2-26.54 179.23-24.9 179.23-24.02L179.23-24.02Q180.5-23.93 183.03-23.83 185.57-23.73 186.84-23.63ZM208.13-24.22L208.13-24.22 207.89-22.12Q205.83-22.41 204.37-22.41L204.37-22.41Q201-22.41 198.8-20.39 196.61-18.36 195.8-15.6 194.99-12.84 194.99-9.47L194.99-9.47Q194.99-7.91 195.19-6.69 195.39-5.47 195.9-4.3 196.41-3.13 197.51-2.47 198.61-1.81 200.22-1.81L200.22-1.81Q202.37-1.81 205.69-2.64L205.69-2.64Q206.71-3.03 207.3-3.03L207.3-3.03Q208.47-3.03 208.72-0.29L208.72-0.29Q204.42 1.07 200.76 1.07L200.76 1.07Q195.43 1.07 193.55-1.54 191.67-4.15 191.67-10.01L191.67-10.01Q191.67-13.43 192.14-15.99 192.6-18.55 193.77-20.78 194.95-23 197.17-24.17 199.39-25.34 202.61-25.34L202.61-25.34Q206.23-25.34 208.13-24.22ZM211.45-35.16L211.45-35.16 213.99-34.57Q214.13-32.57 214.21-28.17 214.28-23.78 214.38-22.12L214.38-22.12Q217.01-24.9 220.72-24.9L220.72-24.9Q224.04-24.9 226.46-22.56 228.88-20.21 228.88-16.31L228.88-16.31 228.88-0.24Q228.24 0.05 227.27 0.05L227.27 0.05Q226.19 0.05 225.31-0.15L225.31-0.15Q225.31-0.54 225.34-1.34 225.36-2.15 225.36-2.54L225.36-2.54Q225.36-4.44 225.22-9.11 225.07-13.77 225.07-16.89L225.07-16.89Q224.34-21.39 220.53-21.39L220.53-21.39Q218.87-21.39 217.26-20.48 215.65-19.58 214.91-18.36L214.91-18.36Q215.06-15.28 215.11-9.08 215.16-2.88 215.26-0.15L215.26-0.15Q214.08 0.05 213.25 0.05L213.25 0.05Q212.03 0.05 211.2-0.24L211.2-0.24Q211.3-2.64 211.3-7.81L211.3-7.81Q211.3-10.11 211.25-16.24 211.2-22.36 211.23-26.78 211.25-31.2 211.45-35.16ZM252.56-4.74L252.56-4.74 253.05-2.59Q250.9-1.81 246.67-0.85 242.45 0.1 240.4 0.1L240.4 0.1Q238.3 0.1 236.74-1.29 235.18-2.69 234.39-4.86 233.61-7.03 233.25-9.16 232.88-11.28 232.88-13.33L232.88-13.33Q232.88-25.54 243.92-25.54L243.92-25.54Q246.55-25.54 248.55-23.85 250.56-22.17 250.56-19.48L250.56-19.48Q250.56-18.02 249.75-16.89 248.94-15.77 247.8-15.11 246.65-14.45 244.87-13.92 243.09-13.38 241.72-13.13 240.35-12.89 238.45-12.6 236.54-12.3 235.81-12.16L235.81-12.16Q235.86-10.74 235.98-9.67 236.1-8.59 236.47-7.35 236.84-6.1 237.45-5.3 238.06-4.49 239.13-3.96 240.2-3.42 241.67-3.42L241.67-3.42Q243.43-3.42 245.97-3.74 248.51-4.05 250.48-4.39 252.46-4.74 252.56-4.74ZM236.01-15.19L236.01-15.19Q242.65-17.09 246.89-19.19L246.89-19.19Q246.55-20.8 245.97-21.53 245.38-22.27 244.21-22.27L244.21-22.27Q241.23-22.27 238.81-20.21 236.4-18.16 236.01-15.19ZM258.32-19.53L258.32-19.53 258.51-0.2Q257.78 0.2 256.75 0.2L256.75 0.2Q255.97 0.2 255-0.05L255-0.05Q255.14-3.13 255.19-12.16 255.24-21.19 255.58-25.54L255.58-25.54 257.78-25.05 257.93-22.31Q260.51-25.05 263.88-25.05L263.88-25.05Q265.59-25.05 266.62-24.8 267.64-24.56 268.6-23.61 269.55-22.66 270.04-21.09 270.52-19.53 270.91-16.63 271.31-13.72 271.48-9.84 271.65-5.96 271.7-0.05L271.7-0.05Q271.4 0.05 270.57 0.05L270.57 0.05Q268.82 0.05 267.84-0.39L267.84-0.39Q267.64-1.17 267.64-2.98L267.64-2.98Q267.64-3.91 267.72-6.47 267.79-9.03 267.79-10.45L267.79-10.45Q267.79-12.79 267.62-14.55 267.45-16.31 266.98-18.02 266.52-19.73 265.57-20.65 264.62-21.58 263.2-21.58L263.2-21.58Q261.59-21.58 260.69-21.34 259.78-21.09 259.42-20.75 259.05-20.41 258.32-19.53Z" opacity="1" transform="matrix(1,0,0,1,0,0)" fill="#222222" class="wordmark-text-0" data-fill-palette-color="primary" id="text-0"></path></svg></g></svg></g></svg></g></svg></g><g transform="matrix(1,0,0,1,67.59068640954777,0)"><svg viewBox="0 0 109.24998718090444 109.24998718090444" height="109.24998718090444" width="109.24998718090444"><g><svg></svg></g><g id="icon-0"><svg viewBox="0 0 109.24998718090444 109.24998718090444" height="109.24998718090444" width="109.24998718090444"><g><path d="M0 54.625c0-30.169 24.456-54.625 54.625-54.625 30.169 0 54.625 24.456 54.625 54.625 0 30.169-24.456 54.625-54.625 54.625-30.169 0-54.625-24.456-54.625-54.625zM54.625 105.154c27.907 0 50.529-22.623 50.529-50.529 0-27.907-22.623-50.529-50.529-50.529-27.907 0-50.529 22.623-50.529 50.529 0 27.907 22.623 50.529 50.529 50.529z" data-fill-palette-color="tertiary" fill="#222222" stroke="transparent"></path></g><g transform="matrix(1,0,0,1,43.551084573686836,24.236110487159515)"><svg viewBox="0 0 22.147818033530775 60.77776620658541" height="60.77776620658541" width="22.147818033530775"><g><svg version="1.0" xmlns="http://www.w3.org/2000/svg" xmlns:xlink="http://www.w3.org/1999/xlink" x="0" y="0" viewBox="0 0.27799999713897705 36.44034957885742 99.99915313720703" enable-background="new 0 0 36.439 100.277" xml:space="preserve" width="22.147818033530775" height="60.77776620658541" class="icon-s-0" data-fill-palette-color="accent" id="s-0"><path d="M26.47 95.631c-0.021 2.55 2.024 4.625 4.568 4.646 2.548 0.021 4.624-2.021 4.645-4.567l0.757-90.403c0.037-4.47-2.869-4.971-4.903-4.987-2.042-0.017-5.817 5.713-6.673 11C24 16.602 18.891 43.844 26.988 49.207L26.47 95.631 26.47 95.631 26.47 95.631z" fill="#f500a2" data-fill-palette-color="accent"></path><path d="M4.888 95.452L5.506 37.22C2.192 37.193 0.562 33.246 0 30.39L2.006 0.278 4.72 24.584 7.263 0.32l2.711 24.308 3.124-24.259 2.131 24.303 3.12-24.259 1.497 30.143c-0.602 2.846-2.064 6.766-5.386 6.739l-0.353 58.233c-0.021 2.548-2.106 4.59-4.649 4.568C6.914 100.075 4.868 98 4.888 95.452L4.888 95.452 4.888 95.452z" fill="#f500a2" data-fill-palette-color="accent"></path></svg></g></svg></g></svg></g></svg></g><g></g></svg></g></svg></g><path d="M0 41.215L0 1 212.036 1 212.036 41.215 208.484 41.215 208.484 4.553 3.553 4.553 3.553 41.215 0 41.215M0 205.985L0 246.2 212.036 246.2 212.036 205.985 208.484 205.985 208.484 242.647 3.553 242.647 3.553 205.985 0 205.985" fill="#222222" stroke="transparent" data-fill-palette-color="primary"></path></svg></g><defs></defs></svg><rect width="212.03639951903145" height="247.2" fill="none" stroke="none" visibility="hidden"></rect></g></svg></g></svg>